<?xml version="1.0" encoding="UTF-8" standalone="no"?>
<!-- Created with Inkscape (http://www.inkscape.org/) -->

<svg
   width="169.14006mm"
   height="166.21776mm"
   viewBox="0 0 169.14006 166.21776"
   version="1.1"
   id="svg1"
   xml:space="preserve"
   inkscape:version="1.3.2 (091e20e, 2023-11-25, custom)"
   sodipodi:docname="app-icon.svg"
   inkscape:export-filename="app-icon-200px.png"
   inkscape:export-xdpi="30.034281"
   inkscape:export-ydpi="30.034281"
   xmlns:inkscape="http://www.inkscape.org/namespaces/inkscape"
   xmlns:sodipodi="http://sodipodi.sourceforge.net/DTD/sodipodi-0.dtd"
   xmlns:xlink="http://www.w3.org/1999/xlink"
   xmlns="http://www.w3.org/2000/svg"
   xmlns:svg="http://www.w3.org/2000/svg"><sodipodi:namedview
     id="namedview1"
     pagecolor="#ffffff"
     bordercolor="#000000"
     borderopacity="0.25"
     inkscape:showpageshadow="2"
     inkscape:pageopacity="0.0"
     inkscape:pagecheckerboard="true"
     inkscape:deskcolor="#d1d1d1"
     inkscape:document-units="mm"
     inkscape:zoom="1.0242632"
     inkscape:cx="268.97383"
     inkscape:cy="257.2581"
     inkscape:window-width="1920"
     inkscape:window-height="1009"
     inkscape:window-x="-8"
     inkscape:window-y="-8"
     inkscape:window-maximized="1"
     inkscape:current-layer="layer1"
     inkscape:export-bgcolor="#ffffff00" /><defs
     id="defs1"><linearGradient
       id="linearGradient9"
       inkscape:collect="always"><stop
         style="stop-color:#000074;stop-opacity:1;"
         offset="0"
         id="stop9" /><stop
         style="stop-color:#a000a0;stop-opacity:1;"
         offset="1"
         id="stop10" /></linearGradient><inkscape:path-effect
       effect="mirror_symmetry"
       start_point="103.42412,114.59438"
       end_point="103.42412,154.31233"
       center_point="103.42412,134.45335"
       id="path-effect9"
       is_visible="true"
       lpeversion="1.2"
       lpesatellites=""
       mode="free"
       discard_orig_path="false"
       fuse_paths="true"
       oposite_fuse="false"
       split_items="false"
       split_open="false"
       link_styles="false" /><inkscape:path-effect
       effect="mirror_symmetry"
       start_point="102.99628,62.940949"
       end_point="102.73796,117.9686"
       center_point="102.86712,90.454774"
       id="path-effect7"
       is_visible="true"
       lpeversion="1.2"
       lpesatellites=""
       mode="free"
       discard_orig_path="false"
       fuse_paths="true"
       oposite_fuse="false"
       split_items="false"
       split_open="false"
       link_styles="false" /><inkscape:path-effect
       effect="mirror_symmetry"
       start_point="103.42412,114.59438"
       end_point="103.42412,154.31233"
       center_point="103.42412,134.45335"
       id="path-effect19"
       is_visible="true"
       lpeversion="1.2"
       lpesatellites=""
       mode="free"
       discard_orig_path="false"
       fuse_paths="true"
       oposite_fuse="false"
       split_items="false"
       split_open="false"
       link_styles="false" /><inkscape:path-effect
       effect="mirror_symmetry"
       start_point="102.99628,62.940949"
       end_point="102.73796,117.9686"
       center_point="102.86712,90.454774"
       id="path-effect17"
       is_visible="true"
       lpeversion="1.2"
       lpesatellites=""
       mode="free"
       discard_orig_path="false"
       fuse_paths="true"
       oposite_fuse="false"
       split_items="false"
       split_open="false"
       link_styles="false" /><inkscape:path-effect
       effect="mirror_symmetry"
       start_point="103.42412,114.59438"
       end_point="103.42412,154.31233"
       center_point="103.42412,134.45335"
       id="path-effect14"
       is_visible="true"
       lpeversion="1.2"
       lpesatellites=""
       mode="free"
       discard_orig_path="false"
       fuse_paths="true"
       oposite_fuse="false"
       split_items="false"
       split_open="false"
       link_styles="false" /><inkscape:path-effect
       effect="mirror_symmetry"
       start_point="102.99628,62.940949"
       end_point="102.73796,117.9686"
       center_point="102.86712,90.454774"
       id="path-effect12"
       is_visible="true"
       lpeversion="1.2"
       lpesatellites=""
       mode="free"
       discard_orig_path="false"
       fuse_paths="true"
       oposite_fuse="false"
       split_items="false"
       split_open="false"
       link_styles="false" /><linearGradient
       inkscape:collect="always"
       xlink:href="#linearGradient9"
       id="linearGradient10"
       x1="22.567192"
       y1="117.08292"
       x2="184.41448"
       y2="117.08292"
       gradientUnits="userSpaceOnUse" /></defs><g
     inkscape:label="Layer 1"
     inkscape:groupmode="layer"
     id="layer1"
     transform="translate(-18.844977,-33.974153)"><g
       id="g19"
       style="display:inline"><path
         style="display:inline;opacity:1;fill:none;fill-opacity:1;stroke:#000000;stroke-width:5.29167;stroke-dasharray:none;stroke-opacity:1"
         d="M 102.9971,62.765822 C 78.666168,63.62019 80.606785,85.721037 80.606785,85.721037 c 0,0 -3.872805,2.128109 -3.777431,8.180239 0.328645,6.659494 6.210332,8.649454 6.210332,8.649454 3.763495,9.55338 11.99322,13.66476 19.705734,13.82809 7.71371,-0.0909 15.98168,-4.12485 19.8347,-13.64247 0,0 5.90011,-1.93465 6.29126,-8.59077 0.15219,-6.050967 -3.70046,-8.215343 -3.70046,-8.215343 0,0 2.14802,-22.081653 -22.17382,-23.164415 z"
         id="path15"
         sodipodi:nodetypes="ccccc"
         inkscape:path-effect="#path-effect17"
         inkscape:original-d="m 103.39943,62.753699 c -24.754587,0.623629 -22.792645,22.967338 -22.792645,22.967338 0,0 -3.872805,2.128109 -3.777431,8.180239 0.328645,6.659494 6.210332,8.649454 6.210332,8.649454 3.827938,9.71696 12.276366,13.80396 20.101444,13.83301"
         transform="translate(0.52771152,0.01566948)" /><path
         style="display:inline;opacity:1;fill:none;fill-opacity:1;stroke:#000000;stroke-width:5.29167;stroke-dasharray:none;stroke-opacity:1"
         d="m 103.42412,154.11809 c -24.192461,-0.45956 -42.559422,-8.35235 -42.559422,-8.35235 0,0 -0.377922,-12.65594 8.709768,-20.4253 9.801019,-8.37919 19.273174,-10.92872 19.273174,-10.92872 0,0 1.236751,11.24877 3.311097,17.071 3.02166,8.48113 9.680953,15.60516 11.265383,17.22158 1.58443,-1.61642 8.24372,-8.74045 11.26538,-17.22158 2.07435,-5.82223 3.3111,-17.071 3.3111,-17.071 0,0 9.47216,2.54953 19.27317,10.92872 9.08769,7.76936 8.70977,20.4253 8.70977,20.4253 0,0 -18.36696,7.89279 -42.55942,8.35235 z"
         id="path16"
         sodipodi:nodetypes="ccscsc"
         inkscape:path-effect="#path-effect19"
         inkscape:original-d="m 104.15475,154.12967 c -24.552327,-0.31181 -43.290052,-8.36393 -43.290052,-8.36393 0,0 -0.377922,-12.65594 8.709768,-20.4253 9.801019,-8.37919 19.273174,-10.92872 19.273174,-10.92872 0,0 1.236751,11.24877 3.311097,17.071 3.442942,9.66357 11.608543,17.56525 11.608543,17.56525" /></g><ellipse
       style="display:inline;fill:#ffffff;fill-opacity:1;stroke-width:0.963026"
       id="path3"
       cx="103.49084"
       cy="117.08292"
       rx="80.923645"
       ry="79.52549" /><ellipse
       style="display:inline;fill:url(#linearGradient10);stroke-width:0.963026"
       id="ellipse5"
       cx="103.49084"
       cy="117.08292"
       rx="80.923645"
       ry="79.52549" /><path
       id="path1"
       style="display:inline;fill:#000000;fill-opacity:1;stroke-width:0.283075"
       d="m 103.41501,33.974153 a 84.570114,83.108856 0 0 0 -84.570036,83.108627 84.570114,83.108856 0 0 0 84.570036,83.10913 84.570114,83.108856 0 0 0 84.57003,-83.10913 84.570114,83.108856 0 0 0 -84.57003,-83.108627 z m 0,7.082771 a 77.362991,76.026268 0 0 1 77.36324,76.025856 77.362991,76.026268 0 0 1 -77.36324,76.02636 77.362991,76.026268 0 0 1 -77.362724,-76.02636 77.362991,76.026268 0 0 1 77.362724,-76.025856 z" /><path
       id="path5"
       style="display:inline;fill:none;fill-opacity:1;stroke:#ffffff;stroke-width:6.90888;stroke-dasharray:none;stroke-opacity:1"
       d="m 103.62205,51.430595 c -31.766737,1.115473 -29.232463,29.970578 -29.232463,29.970578 0,0 -5.056534,2.778002 -4.932013,10.679729 0.429084,8.694718 8.108473,11.293018 8.108473,11.293018 4.91366,12.47302 15.657879,17.8409 25.727423,18.05416 10.07112,-0.11871 20.86624,-5.38562 25.89678,-17.81193 0,0 7.70304,-2.52581 8.21373,-11.216117 0.19869,-7.90021 -4.83149,-10.726284 -4.83149,-10.726284 0,0 2.80444,-28.829488 -28.95044,-30.243154 z M 84.459393,118.83927 c 0,0 -12.366389,3.32915 -25.162707,14.26909 -11.864989,10.14376 -11.371967,26.66728 -11.371967,26.66728 0,0 23.980494,10.30509 55.566451,10.90508 31.58595,-0.59999 55.56577,-10.90508 55.56577,-10.90508 0,0 0.49369,-16.52352 -11.3713,-26.66728 -12.79631,-10.93994 -25.16338,-14.26909 -25.16338,-14.26909 0,0 -1.61515,14.68695 -4.32345,22.28851 -3.94509,11.07305 -12.63899,20.37376 -14.70764,22.48418 -2.06865,-2.11042 -10.763225,-11.41113 -14.708337,-22.48418 -2.708291,-7.60156 -4.32344,-22.28851 -4.32344,-22.28851 z" /></g></svg>
